<svg width="204" height="122" viewBox="0 0 204 122" fill="none" xmlns="http://www.w3.org/2000/svg">
<path d="M184.117 39.8821L197.148 62.6158C197.887 63.8952 199.027 64.4301 200.238 64.4301C202.05 64.4301 203.933 63.0839 203.933 60.7971L204 15.3341C204 13.0473 202.188 11.6343 200.372 11.6343C199.161 11.6343 197.954 12.2405 197.215 13.5198L184.117 36.1867C183.783 36.7261 183.645 37.3947 183.645 38.001C183.645 38.6741 183.779 39.2803 184.117 39.8821Z" fill="#2FC18C"/>
<path d="M170.619 47.616L183.717 70.2829C184.055 70.8891 184.255 71.5622 184.255 72.164C184.255 74.1164 182.51 75.7969 180.56 75.7969C179.955 75.7969 179.349 75.6632 178.748 75.3244L139.455 52.5238C138.177 51.7839 137.643 50.5714 137.643 49.4302C137.643 47.5491 139.054 45.6636 141.338 45.6636L167.467 45.7973C168.811 45.7973 170.018 46.4704 170.623 47.6115" fill="#2FC18C"/>
<path d="M167.396 29.9952H141.267C138.983 29.9952 137.638 28.1809 137.638 26.3622C137.638 25.1498 138.177 23.9418 139.45 23.2018L178.811 0.539369C179.416 0.20505 180.088 0 180.694 0C182.644 0 184.322 1.68051 184.322 3.69981C184.322 4.30604 184.122 4.91227 183.784 5.51405L170.552 28.1809C169.88 29.3265 168.74 29.9952 167.396 29.9952Z" fill="#2FC18C"/>
<path d="M136.944 88.2337C140.902 88.2337 143.324 90.4357 143.965 94.5189H129.834C130.64 90.4759 133.084 88.2337 136.944 88.2337ZM152.82 98.0538C152.82 87.1059 146.894 81.311 136.944 81.311C127.559 81.311 120.574 87.6007 120.574 97.8398C120.574 108.859 128.476 114.159 138.636 114.159C143.079 114.159 147.949 113.241 152.815 111.262L151.404 103.492C147.878 105.257 143.715 106.247 140.047 106.247C133.979 106.247 130.466 103.96 129.696 99.6763H152.815V98.0493L152.82 98.0538Z" fill="#444955"/>
<path d="M99.409 106.175C94.4717 106.175 91.5779 102.783 91.5779 97.6258C91.5779 92.4684 94.4717 88.938 99.409 88.938C104.066 88.938 107.098 92.4684 107.098 97.6258C107.098 102.783 104.061 106.175 99.409 106.175ZM101.88 81.311C98.011 81.311 94.2446 83.0762 91.7203 85.7062V70.9248H91.6491L82.5492 74.4552V113.45H91.7203V109.626C94.3426 112.447 98.1446 114.159 101.951 114.159C110.984 114.159 116.839 107.022 116.839 97.6303C116.839 88.2381 110.77 81.311 101.88 81.311Z" fill="#444955"/>
<path d="M62.5108 101.584L68.8593 82.0154H79.1613L63.4279 122H53.1972L57.5735 111.97L46.4924 82.0154H56.7944L62.5108 101.584Z" fill="#444955"/>
<path d="M32.8068 86.8206C34.6411 83.8519 37.6061 81.9485 41.84 81.9485L45.1567 90.779L45.0855 90.8503C44.2396 90.4268 42.8283 90.1416 41.1365 90.1416C35.7051 90.1416 32.8113 93.8146 32.8113 99.1816V113.45H23.6401V82.0154H32.8113V86.8206H32.8068Z" fill="#444955"/>
<path d="M9.17114 70.9248V82.0153H18.3423V89.7849H9.17114V101.651C9.17114 105.043 11.3571 106.242 13.7567 106.242C15.3817 106.242 17.0022 105.748 18.271 104.972H18.3423V112.67C16.5793 113.517 13.2625 114.155 10.9341 114.155C4.22941 114.155 0 109.777 0 103.064V74.4552L9.09991 70.9248H9.17114Z" fill="#444955"/>
</svg>
